<svg width="121" height="107" viewBox="0 0 121 107" fill="none" xmlns="http://www.w3.org/2000/svg">
<path d="M2.84851 2H16.1005C18.2154 2 20.0814 3.50452 20.6965 5.70558L41.4422 79.9419C42.0573 82.1429 43.9233 83.6475 46.038 83.6475H92.7805C94.9783 83.6475 96.8964 82.0247 97.4367 79.7072L105.806 43.8248C106.346 41.5071 108.264 39.8845 110.462 39.8845H118.734" stroke="white" stroke-width="3.75648" stroke-linecap="round"/>
<path d="M71.3719 22.8225C70.6684 22.0574 69.5279 22.0574 68.8245 22.8225L57.3607 35.293C56.6574 36.0583 56.6574 37.2989 57.3607 38.0642C58.0642 38.8294 59.2048 38.8294 59.9083 38.0642L70.0981 26.9794L80.288 38.0642C80.9915 38.8294 82.1319 38.8294 82.8354 38.0642C83.5389 37.2989 83.5389 36.0583 82.8354 35.293L71.3719 22.8225ZM71.8995 60.7862V24.2081H68.2968V60.7862H71.8995Z" fill="white"/>
<path d="M57.4888 105.202C60.4734 105.202 62.8928 102.571 62.8928 99.3238C62.8928 96.0772 60.4734 93.4452 57.4888 93.4452C54.5043 93.4452 52.0848 96.0772 52.0848 99.3238C52.0848 102.571 54.5043 105.202 57.4888 105.202Z" stroke="white" stroke-width="3.00518"/>
<path d="M83.9083 105.202C86.8928 105.202 89.3123 102.571 89.3123 99.3238C89.3123 96.0772 86.8928 93.4452 83.9083 93.4452C80.9237 93.4452 78.5043 96.0772 78.5043 99.3238C78.5043 102.571 80.9237 105.202 83.9083 105.202Z" stroke="white" stroke-width="3.00518"/>
</svg>
