<svg width="129" height="118" viewBox="0 0 129 118" fill="none" xmlns="http://www.w3.org/2000/svg">
<path d="M2.86792 2H17.0302C19.2903 2 21.2845 3.66415 21.9418 6.09874L44.1126 88.2116C44.7699 90.6461 46.7641 92.3104 49.024 92.3104H98.9771C101.326 92.3104 103.376 90.5154 103.953 87.952L112.897 48.2624C113.475 45.6989 115.525 43.904 117.873 43.904H126.713" stroke="white" stroke-width="3.75648" stroke-linecap="round"/>
<path d="M76.0983 25.0318C75.3465 24.1855 74.1277 24.1855 73.3759 25.0318L61.1247 38.8255C60.3731 39.6719 60.3731 41.0442 61.1247 41.8906C61.8765 42.7371 63.0955 42.7371 63.8473 41.8906L74.737 29.6298L85.6269 41.8906C86.3786 42.7371 87.5975 42.7371 88.3492 41.8906C89.101 41.0442 89.101 39.6719 88.3492 38.8255L76.0983 25.0318ZM76.6622 67.0235V26.5644H72.812V67.0235H76.6622Z" fill="white"/>
<path d="M61.2613 116.152C64.4508 116.152 67.0364 113.241 67.0364 109.65C67.0364 106.059 64.4508 103.148 61.2613 103.148C58.0717 103.148 55.4861 106.059 55.4861 109.65C55.4861 113.241 58.0717 116.152 61.2613 116.152Z" stroke="white" stroke-width="3.00518"/>
<path d="M89.4956 116.152C92.6852 116.152 95.2708 113.241 95.2708 109.65C95.2708 106.059 92.6852 103.148 89.4956 103.148C86.3061 103.148 83.7205 106.059 83.7205 109.65C83.7205 113.241 86.3061 116.152 89.4956 116.152Z" stroke="white" stroke-width="3.00518"/>
</svg>
