<svg width="22" height="24" viewBox="0 0 22 24" fill="none" xmlns="http://www.w3.org/2000/svg">
<path d="M16.8965 10.9841H4.7941C3.83925 10.9841 3.06519 11.8546 3.06519 12.9284V19.7335C3.06519 20.8073 3.83925 21.6778 4.7941 21.6778H16.8965C17.8514 21.6778 18.6255 20.8073 18.6255 19.7335V12.9284C18.6255 11.8546 17.8514 10.9841 16.8965 10.9841Z" stroke="white" stroke-linecap="round" stroke-linejoin="round"/>
<path d="M6.52319 10.9841V7.09544C6.52319 5.80628 6.97858 4.56992 7.78917 3.65834C8.59975 2.74677 9.69915 2.23465 10.8455 2.23465C11.9918 2.23465 13.0912 2.74677 13.9018 3.65834C14.7124 4.56992 15.1678 5.80628 15.1678 7.09544V10.9841" stroke="white" stroke-linecap="round" stroke-linejoin="round"/>
</svg>
