<svg width="20" height="23" viewBox="0 0 20 23" fill="none" xmlns="http://www.w3.org/2000/svg">
<path d="M15.369 10.6055H4.04443C3.15095 10.6055 2.42664 11.3925 2.42664 12.3633V18.5156C2.42664 19.4864 3.15095 20.2734 4.04443 20.2734H15.369C16.2625 20.2734 16.9868 19.4864 16.9868 18.5156V12.3633C16.9868 11.3925 16.2625 10.6055 15.369 10.6055Z" stroke="white" stroke-linecap="round" stroke-linejoin="round"/>
<path d="M5.66223 10.6055V7.08984C5.66223 5.92434 6.08835 4.80658 6.84683 3.98244C7.60532 3.15831 8.63406 2.69531 9.70672 2.69531C10.7794 2.69531 11.8081 3.15831 12.5666 3.98244C13.3251 4.80658 13.7512 5.92434 13.7512 7.08984V10.6055" stroke="white" stroke-linecap="round" stroke-linejoin="round"/>
</svg>
